<?xml version="1.0" encoding="utf-8"?>
<!-- Generator: Adobe Illustrator 19.1.0, SVG Export Plug-In . SVG Version: 6.00 Build 0)  -->
<svg version="1.1" id="Layer_1" xmlns="http://www.w3.org/2000/svg" xmlns:xlink="http://www.w3.org/1999/xlink" x="0px" y="0px"
	 viewBox="0 0 743.1 669.2" style="enable-background:new 0 0 743.1 669.2;" width="763px" height="686px" xml:space="preserve">
<style type="text/css">
	.st0{fill:#192451;}
	.st1{fill:#413C64;}
	.st2{fill:#8A8AD0;}
	.st3{fill:#FFBBF2;}
	.st4{fill:#F2C768;}
	.st5{opacity:0.3;}
	.st6{fill:none;}
	.st7{fill:#FFFFFF;}
	.st8{fill:#E58FD0;}
	.st9{fill:#DDA33C;}
	.st10{fill:#211E31;}
	.st11{fill:#F4D9D3;}
	.st12{fill:#FEEBE5;}
	.st13{opacity:0.9;}
	.st14{opacity:0.2;}
	.st15{fill:#C4C9E8;}
	.st16{fill:#BDD8FF;}
	.st17{opacity:0.1;}
	.st18{fill:#F9ACE6;}
	.st19{fill:#9494EA;}
	.st20{opacity:0.19;}
</style>
<g>
	<rect x="229.9" y="115.6" class="st0" width="74.2" height="2"/>
</g>
<g>
	<rect x="308.7" y="1.9" class="st1" width="405" height="156.8"/>
</g>
<g>
	<rect x="274.7" y="92.7" class="st2" width="402" height="76.1"/>
</g>
<g>
	<rect x="119.4" y="198.6" class="st0" width="155.3" height="2"/>
</g>
<g>
	<path class="st3" d="M110.4,233.9H54.1c-3.9,0-7.1-3.2-7.1-7.1v-53c0-3.9,3.2-7.1,7.1-7.1h56.3c2.3,0,4.5,1.1,5.8,3.1l18.3,26.5
		c1.7,2.4,1.7,5.6,0,8.1l-18.3,26.5C114.9,232.7,112.7,233.9,110.4,233.9z"/>
</g>
<g>
	<path class="st0" d="M119,206.9c-3.5,0-6.3-2.8-6.3-6.3s2.8-6.3,6.3-6.3s6.3,2.8,6.3,6.3S122.4,206.9,119,206.9z M119,196.3
		c-2.4,0-4.3,1.9-4.3,4.3c0,2.4,1.9,4.3,4.3,4.3s4.3-1.9,4.3-4.3C123.3,198.2,121.3,196.3,119,196.3z"/>
</g>
<g>
	<rect x="169.4" y="286.7" class="st0" width="105.3" height="2"/>
</g>
<g>
	<path class="st4" d="M163.9,321.8h-56.3c-3.9,0-7.1-3.2-7.1-7.1v-53c0-3.9,3.2-7.1,7.1-7.1h56.3c2.3,0,4.5,1.1,5.8,3.1l18.3,26.5
		c1.7,2.4,1.7,5.6,0,8.1l-18.3,26.5C168.4,320.6,166.2,321.8,163.9,321.8z"/>
</g>
<g class="st5">
	<path class="st6" d="M122,293.5c0.9,5.8,3.1,5.8,3.8,5.8c6.3-0.1,19.3-14.3,27.3-30.3c-8.7,3.1-17,7.3-22.7,11.8
		C124.4,285.4,121.5,289.9,122,293.5z"/>
	<path class="st7" d="M145.7,316.3c-2-4.6,3.2-8.8,6.4-10.9c10.8-6.9,23.3-10.5,34.9-11.9l0.9-1.3c1-1.5,1.4-3.3,1.2-5
		c-13.5,1.2-28.1,5.3-40.3,13.1c-11.7,7.5-10,15.3-8.7,18.3c0.5,1.1,1.1,2.1,1.9,3.1h9.6C148.8,320.3,146.6,318.4,145.7,316.3z"/>
	<path class="st7" d="M100.5,289.5l5.1-5.9c1-1,12.4-12,24.7-22.1c3.3-2.7,6.2-5,8.8-6.9h-9.9c-1.1,0.9-2.2,1.7-3.3,2.7
		c-13.2,10.8-24.6,21.9-24.9,22.3l-0.7,0.7V289.5z"/>
	<path class="st7" d="M156.3,261.5c-11.2,3.3-22.2,8.6-29.7,14.5c-7.8,6.1-11.5,12.5-10.6,18.4c1.5,9.6,6.8,10.9,9.8,10.9
		c10.7-0.2,26.8-19.3,34.9-38.7c4.6-1.2,9.1-2.1,13.3-2.5l-3.9-5.6c-2.3,0.3-4.6,0.7-6.9,1.3c0.5-1.7,1-3.4,1.4-5
		c-0.3,0-0.5,0-0.8,0h-5.4C158,256.9,157.2,259.2,156.3,261.5z M125.8,299.3c-0.7,0-2.9,0.1-3.8-5.8c-0.6-3.6,2.4-8.2,8.3-12.8
		c5.8-4.5,14-8.7,22.7-11.8C145.1,285,132.2,299.2,125.8,299.3z"/>
	<path class="st7" d="M132.3,321.8c-7.4-4.1-21.4-11.4-31.8-16.6v6.7c6.2,3.1,13.2,6.7,19.2,9.9H132.3z"/>
</g>
<g>
	<path class="st0" d="M172.5,294.8c-3.5,0-6.3-2.8-6.3-6.3s2.8-6.3,6.3-6.3s6.3,2.8,6.3,6.3S176,294.8,172.5,294.8z M172.5,284.2
		c-2.4,0-4.3,1.9-4.3,4.3s1.9,4.3,4.3,4.3s4.3-1.9,4.3-4.3S174.9,284.2,172.5,284.2z"/>
</g>
<g>
	<rect x="259.9" y="26.7" class="st0" width="78.9" height="2"/>
</g>
<g>
	<path class="st0" d="M240.6,55.4h-53.5c-3.7,0-6.6-3-6.6-6.6V6.6c0-3.7,3-6.6,6.6-6.6h53.5c2.2,0,4.2,1.1,5.5,2.9l14.6,21.1
		c1.6,2.3,1.6,5.3,0,7.6l-14.6,21.1C244.9,54.3,242.8,55.4,240.6,55.4z M187.2,2c-2.6,0-4.6,2.1-4.6,4.6v42.1c0,2.6,2.1,4.6,4.6,4.6
		h53.5c1.5,0,2.9-0.7,3.8-2L259,30.3c1.1-1.6,1.1-3.7,0-5.3L244.4,4c-0.9-1.3-2.3-2-3.8-2H187.2z"/>
</g>
<g>
	<path class="st7" d="M210.6,143.3h-53.5c-3.1,0-5.6-2.5-5.6-5.6V95.5c0-3.1,2.5-5.6,5.6-5.6h53.5c1.8,0,3.6,0.9,4.6,2.4l14.6,21.1
		c1.3,1.9,1.3,4.5,0,6.4l-14.6,21.1C214.2,142.4,212.5,143.3,210.6,143.3z"/>
</g>
<g>
	<rect x="226" y="391.6" class="st0" width="130.4" height="2"/>
</g>
<g>
	<path class="st1" d="M206.8,419.3h-53.5c-3.1,0-5.6-2.5-5.6-5.6v-42.1c0-3.1,2.5-5.6,5.6-5.6h53.5c1.8,0,3.6,0.9,4.6,2.4l14.6,21.1
		c1.3,1.9,1.3,4.5,0,6.4l-14.6,21.1C210.4,418.4,208.6,419.3,206.8,419.3z"/>
</g>
<g>
	<rect x="27.7" y="546.7" class="st3" width="51" height="92.2"/>
</g>
<g>
	<rect x="78.7" y="546.7" class="st8" width="13" height="92.2"/>
</g>
<g>
	<rect x="159.2" y="513.7" class="st9" width="13" height="125.2"/>
</g>
<g>
	<path class="st10" d="M252.7,640h-15V461.7h15V640z M239.7,638h11V463.7h-11V638z"/>
</g>
<g>
	<rect x="107.7" y="513.7" class="st4" width="51" height="125.2"/>
</g>
<g>
	<path class="st10" d="M239.7,640h-53V461.7h53V640z M188.7,638h49V463.7h-49V638z"/>
</g>
<g>
	<path class="st11" d="M713.7,624H296.6V352.2c0-6.4,5.2-11.6,11.6-11.6h394c6.4,0,11.6,5.2,11.6,11.6V624z"/>
</g>
<g>
	<path class="st12" d="M696.4,624H295.2V352.2c0-6.4,5.2-11.6,11.6-11.6h378c6.4,0,11.6,5.2,11.6,11.6V624z"/>
</g>
<g>
	<path class="st11" d="M701.1,639H212.2v-18.8h501.5v6.2C713.7,633.3,708,639,701.1,639z"/>
</g>
<g>
	<path class="st7" d="M595.8,639H191.3c-7,0-12.6-5.7-12.6-12.6v-6.2h417.1V639z"/>
</g>
<g class="st13">
	<rect x="274.7" y="88.5" class="st7" width="402" height="494.5"/>
</g>
<g class="st14">
	<g>
		<path class="st15" d="M637.4,393.6h-126c-0.6,0-1-0.4-1-1s0.4-1,1-1h126c0.6,0,1,0.4,1,1S637.9,393.6,637.4,393.6z"/>
	</g>
	<g>
		<path class="st15" d="M637.4,413.6h-126c-0.6,0-1-0.4-1-1s0.4-1,1-1h126c0.6,0,1,0.4,1,1S637.9,413.6,637.4,413.6z"/>
	</g>
	<g>
		<path class="st15" d="M637.4,433.6h-126c-0.6,0-1-0.4-1-1s0.4-1,1-1h126c0.6,0,1,0.4,1,1S637.9,433.6,637.4,433.6z"/>
	</g>
</g>
<g class="st14">
	<g>
		<path class="st15" d="M637.4,453.6h-126c-0.6,0-1-0.4-1-1s0.4-1,1-1h126c0.6,0,1,0.4,1,1S637.9,453.6,637.4,453.6z"/>
	</g>
	<g>
		<path class="st15" d="M637.4,473.6h-126c-0.6,0-1-0.4-1-1s0.4-1,1-1h126c0.6,0,1,0.4,1,1S637.9,473.6,637.4,473.6z"/>
	</g>
</g>
<g>
	<rect x="311.5" y="370.2" class="st16" width="162.9" height="170.2"/>
</g>
<g class="st17">
	<rect x="274.7" y="370.9" width="168" height="78"/>
</g>
<g>
	<path class="st18" d="M633.4,192.1H315.5c-2.8,0-5-2.2-5-5s2.2-5,5-5h317.9c2.8,0,5,2.2,5,5S636.1,192.1,633.4,192.1z"/>
</g>
<g>
	<path class="st18" d="M553.9,222.1H315.5c-2.8,0-5-2.2-5-5s2.2-5,5-5h238.4c2.8,0,5,2.2,5,5S556.7,222.1,553.9,222.1z"/>
</g>
<g>
	<path class="st19" d="M634,457.6h-71.1c-2.8,0-5-2.2-5-5s2.2-5,5-5H634c2.8,0,5,2.2,5,5S636.7,457.6,634,457.6z"/>
</g>
<g>
	<path class="st19" d="M584,397.6h-71.1c-2.8,0-5-2.2-5-5s2.2-5,5-5H584c2.8,0,5,2.2,5,5S586.7,397.6,584,397.6z"/>
</g>
<g>
	<rect x="274.7" y="88.5" class="st7" width="402" height="60.3"/>
</g>
<g>
	<g>
		<path class="st2" d="M275.7,87.5V66.8c0-3.5,2.8-6.3,6.3-6.3h387.4c3.5,0,6.3,2.8,6.3,6.3v20.7H275.7z"/>
	</g>
	<g>
		<g>
			<path class="st7" d="M669.4,61.5c2.9,0,5.3,2.4,5.3,5.3v19.7h-398V66.8c0-2.9,2.4-5.3,5.3-5.3H669.4 M669.4,59.5H282
				c-4,0-7.3,3.3-7.3,7.3v21.7h402V66.8C676.7,62.8,673.4,59.5,669.4,59.5L669.4,59.5z"/>
		</g>
	</g>
</g>
<g>
	<path class="st12" d="M640.7,128.6H313.6c-5.4,0-9.7-4.4-9.7-9.7v0c0-5.4,4.4-9.7,9.7-9.7h327.1c5.4,0,9.7,4.4,9.7,9.7v0
		C650.5,124.2,646.1,128.6,640.7,128.6z"/>
</g>
<g>
	<g>
		<rect y="639" class="st1" width="743.1" height="30.2"/>
	</g>
	<g class="st20">
		<path class="st12" d="M652.8,642c-120.5-3.6-122.4,0.7-123.2,2.5c-0.1,0.3-0.4,1.1,0.5,1.9c1.8,1.8,3.6,3.3,5.2,4.6
			c1.8,1.5,4,3.4,4,4c-1,1.6-17,1.6-26.6,1.6c-34.5,0-67.6-4.3-94.2-7.7c-36.9-4.8-63.6-8.2-71.8,2c-7,8.6-55.5,14.7-103.3,18.1
			h25.3c35.3-3.3,72.8-8.6,79.5-16.9c7.6-9.3,33.8-6,70-1.3c26.7,3.4,59.9,7.7,94.5,7.7c23.8,0,27.6-0.7,28.4-2.9
			c0.7-1.8-1.3-3.4-4.6-6.2c-1.5-1.3-3.1-2.7-4.9-4.4c2.4-1.5,20.1-4.2,122.4-1.2c33.2,1,66.4,2.3,89.1,3.3v-2
			C720.1,644.4,686.4,643,652.8,642z"/>
		<path class="st12" d="M743.1,664.8c-15.8-0.3-52.2-1.2-88.7-2.6c-86-3.4-98.7-7.2-100.1-8.8c0.3-0.6,3.2-2.8,28.3-3.3
			c15.3-0.3,36.5,0.1,63.2,1.2c27.9,1.1,62.2,3,97.3,5.4v-2c-60.2-4-181.2-11-190-2.8c-0.6,0.6-0.8,1.2-0.8,1.6
			c0,2.1,0,6.6,99.9,10.6c37.2,1.5,74.8,2.4,90.9,2.7V664.8z"/>
		<path class="st12" d="M246.5,658.8c6.4-1.2,9.5-3.1,9.3-5.7c-0.4-4.6-12.7-8.3-27.8-8.3H0v2h228c16.6,0,25.6,4.2,25.8,6.4
			c0.1,1-1.9,2.5-7.6,3.6c-12.1,2.3-135.8,8.5-216.2,12.4H71C147,665.5,236.1,660.7,246.5,658.8z"/>
		<path class="st12" d="M34,659.6c-15,0.5-25.4,0.9-34,1.3v2c8.6-0.3,19-0.7,34-1.3c7.8-0.3,16.8-0.6,27.4-1
			c38.5-1.4,67.5-2.8,86.3-4.1c23.9-1.6,23.9-2.5,23.9-3.7c0-1.1,0-2-17.4-2.1c-19.5-0.1-111,0-154.2,0v2c43.3,0,134.7-0.1,154.2,0
			c4.9,0,8.7,0.1,11.3,0.3c-8.6,1.1-33.5,3-104.2,5.6C50.8,659,41.7,659.4,34,659.6z"/>
		<path class="st12" d="M509.5,643.6c0.4-1.6-0.4-3.2-1.7-4.6h-2.9c1.8,1.5,3,3,2.7,4.1c-0.4,1.4-3.7,4.4-26.8,3.6
			c-25.4-0.9-52.9-4.5-73.1-7.7h-12.3c20.2,3.5,54.3,8.6,85.3,9.7C505.1,649.6,508.8,646.2,509.5,643.6z"/>
		<path class="st12" d="M277.8,648.2c8.5,3.2,15.6,5.8,23.7,5.8c6.1,0,12.8-1.5,21-5.5c7.7-3.7,14.9-6.9,21.4-9.6h-5.2
			c-7.1,3.1-13.5,6-17.1,7.8c-18.4,8.9-28.2,5.2-43.1-0.4c-6.6-2.5-14.1-5.3-23.6-7.4h-11.5C258.4,641,268.9,644.9,277.8,648.2z"/>
		<path class="st12" d="M354.3,658.7c-10.5,5.3-14.9,8.4-16.5,10.5h2.8c1.9-1.6,5.9-4.3,14.6-8.7c19.5-9.8,71.5,1.4,99.7,8.7h8
			C437.3,662.2,376.6,647.5,354.3,658.7z"/>
	</g>
</g>
<g>
	<g>
		<path class="st10" d="M637.4,268.7H311.5c-0.6,0-1-0.4-1-1s0.4-1,1-1h325.9c0.6,0,1,0.4,1,1S637.9,268.7,637.4,268.7z"/>
	</g>
	<g>
		<path class="st10" d="M637.4,288.7H311.5c-0.6,0-1-0.4-1-1s0.4-1,1-1h325.9c0.6,0,1,0.4,1,1S637.9,288.7,637.4,288.7z"/>
	</g>
	<g>
		<path class="st10" d="M637.4,308.7H311.5c-0.6,0-1-0.4-1-1s0.4-1,1-1h325.9c0.6,0,1,0.4,1,1S637.9,308.7,637.4,308.7z"/>
	</g>
</g>
<g>
	<g>
		<rect x="511.3" y="510" class="st16" width="126" height="6.8"/>
	</g>
	<g>
		<path class="st16" d="M637.4,524.3h-126c-0.6,0-1-0.4-1-1s0.4-1,1-1h126c0.6,0,1,0.4,1,1S637.9,524.3,637.4,524.3z"/>
	</g>
</g>
<g>
	<rect x="251.8" y="352.9" class="st1" width="184.9" height="78"/>
</g>
<g>
	<path class="st1" d="M175.6,126c-1,0.9-2.3,1.3-4.1,1.3h-0.8c-1.8,0-3.2-0.4-4.1-1.3c-1-0.9-1.4-2.2-1.4-3.9v-16.3h2.7v16.9
		c0,0.6,0.2,1.2,0.7,1.6c0.5,0.5,1.1,0.7,1.8,0.7h1.4c0.8,0,1.4-0.2,1.8-0.7c0.5-0.5,0.7-1,0.7-1.6v-16.9h2.7v16.3
		C177.1,123.8,176.6,125.2,175.6,126z"/>
	<path class="st1" d="M184.3,118.4v8.9h-2.7v-21.6h5.8c1.7,0,3.1,0.4,4,1.2c0.9,0.8,1.3,2,1.3,3.7v3c0,2.3-0.9,3.8-2.8,4.3l4.3,9.5
		h-2.9l-4-8.9H184.3z M189.5,108.6c-0.4-0.3-0.9-0.5-1.7-0.5h-3.5v8h3.5c0.8,0,1.4-0.2,1.7-0.5c0.4-0.4,0.5-0.9,0.5-1.7v-3.5
		C190.1,109.5,189.9,109,189.5,108.6z"/>
	<path class="st1" d="M202.3,105.8V125h6.9v2.3h-9.6v-21.6H202.3z"/>
</g>
<g>
	<path class="st2" d="M364.3,402.3c-9.6,0-13.3-3.1-16.7-6.8c-1.8-2-2.9-3.3-6.4-3.5c-3.6-0.2-7.8,1.9-12.2,4.2
		c-8,4.1-19.1,9.6-27.3-2.7c-8.9-13.3-32.9,0.8-33.1,0.9c-1.4,0.8-3.3,0.4-4.1-1c-0.8-1.4-0.4-3.3,1-4.1c1.2-0.7,29.1-17.1,41.2,0.9
		c5,7.5,10.5,5.3,19.6,0.7c5-2.5,10.1-5.1,15.3-4.8c6,0.3,8.5,3.2,10.6,5.4c2.6,2.9,5.4,6,19.1,4.3c24.8-3,43.8-6.2,44-6.2
		c1.6-0.3,3.2,0.8,3.5,2.5c0.3,1.6-0.8,3.2-2.5,3.5c-0.2,0-19.4,3.2-44.3,6.2C369,402.1,366.5,402.3,364.3,402.3z"/>
</g>
<g class="st17">
	<rect x="295.2" y="583" width="386.4" height="9.8"/>
</g>
<g class="st17">
	<rect x="676.7" y="340.6" width="4.9" height="242.4"/>
</g>
</svg>
