<?xml version="1.0" encoding="utf-8"?>
<!-- Generator: Adobe Illustrator 19.1.0, SVG Export Plug-In . SVG Version: 6.00 Build 0)  -->
<svg version="1.1" id="Layer_1" xmlns="http://www.w3.org/2000/svg" xmlns:xlink="http://www.w3.org/1999/xlink" x="0px" y="0px"
	 viewBox="0 0 737.8 846.6" style="enable-background:new 0 0 737.8 846.6;" width="756px" height="868px" xml:space="preserve">
<style type="text/css">
	.st0{opacity:0.62;}
	.st1{fill:#81B0FF;}
	.st2{fill:#E2F2FD;}
	.st3{fill:#0D1B47;}
	.st4{fill:#FFFFFF;}
	.st5{opacity:0.1;}
	.st6{fill:#B287FF;}
	.st7{fill:#2AF2B9;}
	.st8{fill:#7448C0;}
	.st9{fill:#83C4FF;}
	.st10{fill:#4689FF;}
	.st11{fill:#06589A;}
	.st12{fill:#608AF4;}
	.st13{fill:#BADDFB;}
	.st14{opacity:0.54;}
	.st15{fill:#3F5AFE;}
	.st16{fill:#F79C9C;}
	.st17{fill:#FFA8A6;}
	.st18{fill:#FFF59C;}
	.st19{fill:#5FA0FF;}
	.st20{fill:#F76D6D;}
	.st21{fill:#192451;}
</style>
<g class="st0">
	<g>
		<path class="st1" d="M180.4,83.8c0,0-38.6,0.5-53.1,1.7c-14.5,1.3-22.8,16.1-22.8,16.1L55.1,236.7l50.9-20.7
			c0,0,6.9-17.3,12.8-32.9c2.2-4.8,5.3-10.1,8.7-12.2c6.8-4.2,46.1-2.4,52.2-10.9C189.3,146.8,188.1,83.1,180.4,83.8z"/>
	</g>
</g>
<g>
	<path class="st2" d="M678.4,561.9H163.5c-4,0-7.3-3.3-7.3-7.3V7.3c0-4,3.3-7.3,7.3-7.3h514.9c4,0,7.3,3.3,7.3,7.3v547.3
		C685.7,558.6,682.4,561.9,678.4,561.9z"/>
</g>
<g>
	<path class="st3" d="M582.3,803.4h-534c-4.6,0-8.3-3.7-8.3-8.3V472c0-4.6,3.7-8.3,8.3-8.3h534c4.6,0,8.3,3.7,8.3,8.3v323
		C590.6,799.6,586.9,803.4,582.3,803.4z M48.4,465.7c-3.5,0-6.3,2.8-6.3,6.3v323c0,3.5,2.8,6.3,6.3,6.3h534c3.5,0,6.3-2.8,6.3-6.3
		V472c0-3.5-2.8-6.3-6.3-6.3H48.4z"/>
</g>
<g>
	<rect x="201" y="258.8" class="st4" width="247.5" height="123.1"/>
</g>
<g class="st5">
	<g>
		<polygon points="685.7,386.5 546.7,386.5 556.7,179.4 685.7,189.4 		"/>
	</g>
</g>
<g class="st5">
	<g>
		<path d="M156.2,249.9V293c0,0,30.4-71.7,47.7-92.7s-7.8-21-7.8-21L156.2,249.9z"/>
	</g>
</g>
<g>
	<path class="st6" d="M685.7,44.7H156.2V7.3c0-4,3.3-7.3,7.3-7.3h514.9c4,0,7.3,3.3,7.3,7.3V44.7z"/>
</g>
<g>
	<path class="st7" d="M385.4,158.9H146.2c-19.6,0-35.5-15.9-35.5-35.5v0c0-19.6,15.9-35.5,35.5-35.5h239.2
		c19.6,0,35.5,15.9,35.5,35.5v0C420.9,143,405,158.9,385.4,158.9z"/>
</g>
<g>
	<path class="st4" d="M356.6,119.2h-9.1v-10.5h-10.1v10.5h-5.9v-15.4h-10.1v15.4H208.7c-2.3-10.7-11.9-18.8-23.3-18.8
		c-13.1,0-23.8,10.7-23.8,23.8s10.7,23.8,23.8,23.8c11.4,0,20.9-8,23.3-18.8h147.9c2.8,0,5.1-2.3,5.1-5.1
		C361.7,121.4,359.4,119.2,356.6,119.2z M185.4,137.9c-7.5,0-13.7-6.1-13.7-13.7c0-7.5,6.1-13.7,13.7-13.7s13.7,6.1,13.7,13.7
		C199.1,131.8,193,137.9,185.4,137.9z"/>
</g>
<g>
	<rect x="448.4" y="116.7" class="st8" width="197.4" height="15"/>
</g>
<g>
	<rect x="189" y="179.4" class="st8" width="340.5" height="15"/>
</g>
<g>
	<path class="st9" d="M13,308.2c0,0,0-102.8,0-125.4c0-8.1,6-19.6,14.7-36.6c15.6-30.4,38.9-69.4,45.5-74.5
		c10.4-8,68-18.1,76.8-19.8s34.8,1.4,34.8,1.4s14.5,24.2-20.6,33.1c-17.9,3.5-54.1,9.2-58.2,13.7c-4.1,4.5-20.1,64.8-20.8,71.3
		c-3,25.3,20.8,29,20.8,29s37-2,59.7-23.8c18.2-17.5,25.9-20.2,37.2-22.1c10.9-1.8,19.7,1.8,22.3,8.6c6.1,16.2-31.7,43.1-58.1,80
		c-10.7,14.9-16.4,41.3-38.5,66.7C112.7,328.2,108.2,311.5,13,308.2z"/>
</g>
<g>
	<path class="st4" d="M522.2,756.3H7.3c-4,0-7.3-3.3-7.3-7.3V309.4c0-4,3.3-7.3,7.3-7.3h514.9c4,0,7.3,3.3,7.3,7.3V749
		C529.5,753,526.2,756.3,522.2,756.3z"/>
</g>
<g>
	<g>
		<path class="st1" d="M193.6,410.1c-6.6,0-13.8-1.2-22.5-5c-15.6-6.8-24.5-3.1-31.7-0.2c-2.6,1.1-5,2-7.5,2.4
			c-9.2,1.5-16.5-1.7-23.6-4.8c-11-4.8-20.6-9-36.5,5.9c-1.2,1.1-3.1,1.1-4.2-0.1c-1.1-1.2-1.1-3.1,0.1-4.2
			c18.9-17.7,31.7-12,43.1-7.1c6.6,2.9,12.8,5.6,20.2,4.4c1.8-0.3,3.8-1.1,6.2-2.1c7.8-3.2,18.5-7.5,36.4,0.2
			c13.9,6.1,22.8,4.8,34,3.1c5.6-0.8,11.9-1.7,19.4-1.7c1.7,0,3,1.3,3,3s-1.3,3-3,3c-7,0-12.9,0.9-18.5,1.7
			C203.5,409.4,198.7,410.1,193.6,410.1z"/>
	</g>
</g>
<g>
	<path class="st10" d="M529.5,346.7H0v-37.3c0-4,3.3-7.3,7.3-7.3h514.9c4,0,7.3,3.3,7.3,7.3V346.7z"/>
</g>
<g>
	<g>
		<path class="st11" d="M464.8,420.1H63.3c-10.8,0-19.6-8.8-19.6-19.6S52.5,381,63.3,381h401.5c10.8,0,19.6,8.8,19.6,19.6
			S475.6,420.1,464.8,420.1z M63.3,383c-9.7,0-17.6,7.9-17.6,17.6c0,9.7,7.9,17.6,17.6,17.6h401.5c9.7,0,17.6-7.9,17.6-17.6
			c0-9.7-7.9-17.6-17.6-17.6H63.3z"/>
	</g>
	<g>
		<g>
			<path class="st12" d="M463.6,404h-1.2l-0.4-0.4c1.5-1.7,2.4-4,2.4-6.4c0-5.4-4.4-9.8-9.8-9.8s-9.8,4.4-9.8,9.8s4.4,9.8,9.8,9.8
				c2.4,0,4.7-0.9,6.4-2.4l0.4,0.4v1.2l7.6,7.6l2.3-2.3L463.6,404z M454.5,404c-3.8,0-6.8-3-6.8-6.8c0-3.8,3-6.8,6.8-6.8
				c3.8,0,6.8,3,6.8,6.8C461.3,400.9,458.2,404,454.5,404z"/>
		</g>
	</g>
</g>
<g>
	<path class="st13" d="M489,465.7v191.4H42.7V465.7H489 M491,463.7H40.7v195.4H491V463.7L491,463.7z"/>
</g>
<g class="st14">
	<rect x="40.7" y="681.1" class="st2" width="450.3" height="75.2"/>
</g>
<g>
	<rect x="66.6" y="517.7" class="st15" width="353.1" height="15"/>
</g>
<g>
	<rect x="66.6" y="494.9" class="st13" width="145.6" height="2"/>
</g>
<g>
	<g>
		<path class="st7" d="M212.3,573.9H71.6c-2.8,0-5-2.2-5-5s2.2-5,5-5h140.6c2.8,0,5,2.2,5,5S215,573.9,212.3,573.9z"/>
	</g>
	<g>
		<path class="st2" d="M154.7,603.5H71.6c-2.8,0-5-2.2-5-5s2.2-5,5-5h83.1c2.8,0,5,2.2,5,5S157.5,603.5,154.7,603.5z"/>
	</g>
	<g>
		<path class="st7" d="M344.5,603.5H186.6c-2.8,0-5-2.2-5-5s2.2-5,5-5h157.9c2.8,0,5,2.2,5,5S347.3,603.5,344.5,603.5z"/>
	</g>
	<g>
		<path class="st2" d="M271.8,633H71.6c-2.8,0-5-2.2-5-5s2.2-5,5-5h200.2c2.8,0,5,2.2,5,5S274.6,633,271.8,633z"/>
	</g>
	<g>
		<path class="st2" d="M355.3,573.9H242.2c-2.8,0-5-2.2-5-5s2.2-5,5-5h113.2c2.8,0,5,2.2,5,5S358.1,573.9,355.3,573.9z"/>
	</g>
	<g>
		<path class="st7" d="M457.9,573.9h-74.8c-2.8,0-5-2.2-5-5s2.2-5,5-5h74.8c2.8,0,5,2.2,5,5S460.6,573.9,457.9,573.9z"/>
	</g>
</g>
<g>
	<path class="st16" d="M503.9,687.7l-53.5-22.1c0,0,2.7,51.9,9.7,60c6,7.1,18.3,2.8,20.5-7.6c0.6-2.6,0.1-8.8-0.6-14.9
		c1.5,9.9,3.5,18.7,6,21.7c6,7.1,18.3,2.8,20.5-7.6C507.7,711.3,503.9,687.7,503.9,687.7z"/>
	<g>
		<g>
			<path class="st17" d="M543,601.5c-30.2-12.2-42.9-0.1-45.4,3.9c-2.5,4-12.5-0.5-21.6,3.1c-11,4.3-4.3,13.2-14.4,12.7
				c-10.1-0.6-15.4,10.5-15.4,10.5s-48.5-34.7-62.7-37.8c-14.1-3.1-20.9,11.8-13.4,21.4c5.7,7.3,66.4,55.5,74.7,64.3
				c8.2,8.8,72.2,48,61.9,69.4c-5.3,10.9-33,2.1-41.9,1c-18.5-2.4-49-7.7-56.5,2.4c-7.5,10.2-3.6,19.6,15.6,24.4
				c14.8,3.7,50.5,22.6,98.5,29.1c32,4.3,60.8-3.1,94.7-3.1c11.9,0,62.9,13.3,117.7,22.2V703.4c-48.7-11.3-68.2-21.7-76.7-28
				C589.7,624.3,560.3,608.5,543,601.5z"/>
		</g>
	</g>
</g>
<g>
	<rect x="556.7" y="179.4" class="st18" width="181.1" height="193.1"/>
</g>
<g>
	<path class="st19" d="M211.2,184.5c-0.1,0-0.2,0-0.3,0c-0.4-0.1-11-3.5-10.9-12.6c0-5.3,9.5-13.1,14-13.6c0.5-0.1,1,0.3,1.1,0.9
		c0.1,0.5-0.3,1-0.9,1.1c-3.9,0.5-12.2,7.9-12.2,11.7c-0.1,7.7,9.4,10.7,9.5,10.7c0.5,0.2,0.8,0.7,0.7,1.2
		C212,184.3,211.6,184.5,211.2,184.5z"/>
</g>
<g>
	<path class="st19" d="M30.4,159.9c-0.1,0-0.2,0-0.3-0.1c-0.5-0.2-0.8-0.7-0.6-1.3l15.3-44.9c0.2-0.5,0.7-0.8,1.3-0.6
		c0.5,0.2,0.8,0.7,0.6,1.3l-15.3,44.9C31.2,159.6,30.8,159.9,30.4,159.9z"/>
</g>
<g>
	<path class="st19" d="M100,207.3c-10.4,0-14.2-6-14.4-6.4c-0.3-0.5-0.1-1.1,0.3-1.4c0.5-0.3,1.1-0.1,1.4,0.3
		c0.3,0.5,7.8,12,31.7,0.1c0.5-0.2,1.1,0,1.3,0.5s0,1.1-0.5,1.3C111.5,205.9,105,207.3,100,207.3z"/>
</g>
<g>
	<path class="st19" d="M171.4,60.4c-8.9,0-11.6-4.2-11.8-4.5c-0.3-0.5-0.1-1.1,0.3-1.4c0.5-0.3,1.1-0.2,1.4,0.3
		c0.1,0.1,4.5,6.5,20.9,1.8c0.5-0.2,1.1,0.2,1.2,0.7c0.2,0.5-0.2,1.1-0.7,1.2C178.1,59.9,174.4,60.4,171.4,60.4z"/>
</g>
<g>
	<g>
		<path class="st20" d="M386.1,616.1c-7,0-15.4-8.5-15.8-8.9c-0.4-0.4-0.4-1,0-1.4c0.4-0.4,1-0.4,1.4,0c2.7,2.8,10.9,9.7,16,8.1
			c3.2-1,4-3.3,4-5c0.2-4-3.1-9.7-8.7-12.1c-0.5-0.2-0.7-0.8-0.5-1.3c0.2-0.5,0.8-0.7,1.3-0.5c5.8,2.5,10.2,8.6,10,14
			c-0.2,3.4-2.1,5.8-5.4,6.9C387.6,616,386.8,616.1,386.1,616.1z"/>
	</g>
	<g>
		<path class="st20" d="M489.5,658.9c-0.2,0-0.4,0-0.5-0.1l-43.3-26.3c-0.5-0.3-0.6-0.9-0.3-1.4c0.3-0.5,0.9-0.6,1.4-0.3L490,657
			c0.5,0.3,0.6,0.9,0.3,1.4C490.1,658.7,489.8,658.9,489.5,658.9z"/>
	</g>
	<g>
		<path class="st20" d="M516.6,642.1c-0.2,0-0.4-0.1-0.6-0.2c-12.1-8.4-27-14.6-48.5-20.2c-0.5-0.1-0.9-0.7-0.7-1.2
			c0.1-0.5,0.7-0.9,1.2-0.7c21.6,5.7,36.8,12,49.1,20.5c0.5,0.3,0.6,0.9,0.3,1.4C517.2,642,516.9,642.1,516.6,642.1z"/>
	</g>
	<g>
		<path class="st20" d="M538.2,627.2c-0.2,0-0.4-0.1-0.6-0.2c-16.7-12.4-29.3-16.8-40.5-19.8c-0.5-0.1-0.9-0.7-0.7-1.2
			c0.1-0.5,0.7-0.9,1.2-0.7c11.4,3,24.3,7.6,41.2,20.1c0.4,0.3,0.5,1,0.2,1.4C538.8,627.1,538.5,627.2,538.2,627.2z"/>
	</g>
	<g>
		<path class="st20" d="M432.2,776.1c-0.2,0-0.4-0.1-0.6-0.2c-0.4-0.3-0.5-1-0.2-1.4c1.1-1.5,3.9-5.8,3.3-8.5
			c-0.2-0.8-0.6-1.4-1.4-1.8l-0.1-0.1c-13.9-7.6-18.5-6.2-20.1-4.8c-0.4,0.4-1,0.4-1.4,0c-0.4-0.4-0.4-1,0-1.4
			c3.4-3.2,11-1.7,22.4,4.5l0.1,0.1c1.3,0.7,2.1,1.8,2.4,3.1c0.9,4.2-3.5,9.9-3.7,10.2C432.8,775.9,432.5,776.1,432.2,776.1z"/>
	</g>
	<g>
		<path class="st20" d="M677.1,792.7c-0.5,0-1.5-0.3-3.5-0.9c-2.8-0.9-7.6-2.4-14-4.4c-20.8-6.7-29.6-1.4-29.6-1.3
			c-0.5,0.3-1.1,0.2-1.4-0.3c-0.3-0.5-0.2-1.1,0.3-1.4c0.4-0.2,9.6-5.8,31.3,1.1c10.6,3.4,14.6,4.6,16,5c0.2,0,0.4,0,0.6,0
			c0.4,0.2,1.4,0.5,1.1,1.5C677.8,792.5,677.6,792.7,677.1,792.7z"/>
	</g>
</g>
<g>
	<rect x="734.7" y="688" class="st3" width="2" height="158.6"/>
</g>
<g>
	<g>
		<g>
			<rect x="592.4" y="223.6" class="st3" width="114.3" height="2"/>
		</g>
	</g>
	<g>
		<g>
			<rect x="592.4" y="257.8" class="st3" width="114.3" height="2"/>
		</g>
	</g>
	<g>
		<g>
			<rect x="592.4" y="292" class="st3" width="114.3" height="2"/>
		</g>
	</g>
	<g>
		<g>
			<rect x="592.4" y="326.3" class="st3" width="83.3" height="2"/>
		</g>
	</g>
</g>
<g>
	<g>
		<circle class="st17" cx="35.7" cy="324.4" r="5.6"/>
	</g>
	<g>
		<circle class="st17" cx="60.4" cy="324.4" r="5.6"/>
	</g>
	<g>
		<circle class="st17" cx="85" cy="324.4" r="5.6"/>
	</g>
</g>
<g>
	<g>
		<circle class="st11" cx="191.8" cy="22.3" r="5.6"/>
	</g>
	<g>
		<circle class="st11" cx="216.5" cy="22.3" r="5.6"/>
	</g>
	<g>
		<circle class="st11" cx="241.2" cy="22.3" r="5.6"/>
	</g>
</g>
<g>
	<path class="st6" d="M592.9,477.5h58.6c4.1,0,7.4,3.3,7.4,7.4v55.1c0,4.1-3.3,7.4-7.4,7.4h-58.6c-2.4,0-4.7-1.2-6.1-3.2l-19.1-27.5
		c-1.7-2.5-1.7-5.9,0-8.4l19.1-27.5C588.3,478.7,590.5,477.5,592.9,477.5z"/>
</g>
<g>
	<path class="st21" d="M583.9,518.9c-3.6,0-6.5-2.9-6.5-6.5s2.9-6.5,6.5-6.5s6.5,2.9,6.5,6.5S587.5,518.9,583.9,518.9z M583.9,507.9
		c-2.5,0-4.5,2-4.5,4.5s2,4.5,4.5,4.5s4.5-2,4.5-4.5S586.4,507.9,583.9,507.9z"/>
</g>
</svg>
